<?xml version="1.0" encoding="utf-8"?>
<!-- Generator: Adobe Illustrator 21.0.0, SVG Export Plug-In . SVG Version: 6.00 Build 0)  -->
<svg version="1.1" id="Capa_1" xmlns="http://www.w3.org/2000/svg" xmlns:xlink="http://www.w3.org/1999/xlink" x="0px" y="0px"
	 viewBox="0 0 1417 1161.9" style="enable-background:new 0 0 1417 1161.9;" xml:space="preserve">
<style type="text/css">
	.st0{fill:#FECD2B;}
	.st1{fill:#00A5D6;}
	.st2{fill:#E50076;}
	.st3{fill:#FFFFFF;}
	.st4{opacity:0.2;fill:#FFFFFF;}
	.st5{fill:#0DCDBE;}
</style>
<g>
	<path class="st0" d="M625.1,269.8c-5.8-17.5-15.4-29.8-31.5-34.5c-42.9-12.5-69.3,7-97.2,26.1c-22.2,15.2-42.5,30.7-63.1,46.2
		c-15.9,12-31.5,24.1-48.2,35.9c-18.7,13.3-33.5,27.4-53,40.2c-39.1,25.8-69.5,53.3-105.4,79.7C211.1,474.8,197.9,487,181,498
		c-22.4,14.7-32.2,26.6-23.9,56.7c10.6,38.7,18.9,60.7,30.2,99.1c4,13.6,19.5,41.9,51.1,38.4c41-4.4,79-22.4,131.1-46.3
		c3.9-1.8,7.5-4.3,11.3-6.4l0,0L610,512.3c46.7-25.9,71.3-58.1,63.1-82.5l-7.8-23.2c0.3-0.3,0.7-0.5,1.1-0.8
		C650.9,354.6,641.9,320.6,625.1,269.8z"/>
	<path class="st0" d="M1257.9,472.1L973.1,660.2c-12,7.9-18.7,21.8-17.3,36.2l2.6,26.9c3.4,32.6,6.8,65.2,10.2,97.8
		c0.2,2.3,0.9,4.5,1.6,6.7c9.5,31,55.8,45.2,87.6,20.4c25.1-19.6,51.3-38.2,77-57.2c51.3-38,102.6-76,153.9-113.9
		c3.9-2.9,6.5-6.4,7.4-10.7c1-4.7,0.2-9.2-0.5-13.7l-0.4-8.5l2.5-156.2C1297.8,470.6,1274.4,461.2,1257.9,472.1z"/>
	<path class="st5" d="M394.7,1071.1c-7-13.5-2.3-30.1,10.8-37.8c12.8-7.5,25.3-15.5,37.9-23.4c32.8-20.6,65.9-40.9,99.1-61.1
		c72-43.9,144-87.7,216-131.4c13.3-8.1,26.7-15.5,42.7-17.7c23.7-3.2,42.8,5.1,56.5,23.4c14.4,19.4,16.6,41.3,5.4,63.5
		c-0.4,0.8-0.3,1.8-0.5,2.8c-14.2,21-36.4,32.1-56.6,45.5c-87.5,58-176.1,114.6-262.7,173.9C490.3,1145,422.5,1124.7,394.7,1071.1z"
		/>
	<path class="st5" d="M685.2,1086.3c-11.4-0.6-18.4-5.8-21.2-16.1c-2.4-9.2-0.2-17,8.2-22.5c42.1-27.6,84.1-55.3,126.2-82.9
		c108.5-71.1,217.1-142.1,325.6-213.2c12.7-8.3,25.2-7,32.2,3.4c8.1,12,5.3,23.4-8.4,32.4C1060.4,845,972.8,902.4,885.3,960
		c-60.9,40-121.8,80.1-182.7,120.1C697.1,1083.7,691.7,1087.4,685.2,1086.3z"/>
	<path class="st5" d="M473.2,240.5c-30.8,0-57.9-26.9-57.8-58.3c0.1-38.4,33.3-60.2,60-58.9c31.9,1.6,57.5,25.8,57.5,58.4
		C532.7,215.3,506.3,239.3,473.2,240.5z"/>
	<path class="st5" d="M22.9,780.5c-0.3-23.9,21.5-42.6,43.8-41.4c24.3,1.3,43,22.4,41.5,45.4c-1.5,24.4-21.8,41.8-47,40.4
		C38.8,823.6,21.4,803.5,22.9,780.5z"/>
	<path class="st2" d="M1330.9,432.8c-0.3-17.7,15.9-31.6,32.5-30.7c18,1,31.9,16.6,30.8,33.7c-1.1,18.1-16.2,31.1-34.9,30
		C1342.6,464.8,1329.8,449.9,1330.9,432.8z"/>
	<path class="st0" d="M1093.8,71c-0.3-23.4,21-41.7,42.8-40.5c23.8,1.3,42.1,21.9,40.6,44.4c-1.5,23.9-21.3,41-46,39.6
		C1109.4,113.2,1092.4,93.5,1093.8,71z"/>
	<path class="st5" d="M375.8,266.9c-0.2-11.9,10.7-21.3,21.9-20.7c12.1,0.7,21.5,11.2,20.8,22.7c-0.8,12.2-10.9,20.9-23.5,20.2
		C383.7,288.4,375.1,278.4,375.8,266.9z"/>
	<path class="st2" d="M385.1,910.4l656.7-418.2l-4.9-106.5c0-71.5,0-143,0-214.6c0-5-0.7-9.9-1.6-14.9
		c-11.6-69.4-93.5-110.7-156.5-64c-49.7,36.8-101.3,71.2-152,106.7C625.6,269.8,524.3,340.6,423,411.3c-7.8,5.4-13.1,12.3-15.6,21.5
		c-2.7,9.9-2.2,19.9-1.8,29.9l0,0L385.1,910.4z"/>
	<path class="st2" d="M930.8,609.5l-82.3-138.3L333.9,771.4c-0.2-0.4-0.3-0.8-0.5-1.2c-20.3,11.7-40.2,24-60,36.5l0,0v0
		c-11.5,7.3-23,14.7-34.5,22c-14.1,9-23.8,22.2-31.1,36.3c-31.7,61.5-9.1,122.7,41.8,155.1c37.3,23.8,76,20.3,113.3-2.3
		c12.9-7.8,25.7-15.8,38.5-23.8l0,0l506.6-296C938.8,680,949.1,640.2,930.8,609.5z"/>
	<path class="st5" d="M1287.8,230.3c0.1-42.7-20.3-67.2-53.7-77.6c-17.7-5.5-35.4-3-51.6,6.9c-17.2,10.4-34,21.6-51.3,31.9
		c-9.7,5.8-19.1,12.1-28.6,18.2l-21.9,12.7c-0.6,0.3-1.1,0.6-1.7,0.9c-0.2,0.1-0.3,0.2-0.5,0.4l-440.8,256
		c-32.2,18.7-51.2,56.6-48.4,96.4l13.3,189.4c1.8,26.1,27.3,41.6,48.4,29.5l518-296.3c0.1,0.6,0.1,1.2,0.2,1.7
		c7.3-4.8,14.6-9.5,21.8-14.4l0.1,0l0,0c24-15.9,47.7-32.4,69.8-51.3c17.4-14.8,26.9-36.3,26.8-61.7
		C1287.7,325.4,1287.7,277.8,1287.8,230.3z"/>
</g>
<g>
	<path d="M897.5,576.4l-16.4-127.9l55-133.5h44.2c0,0,43.3,120,47.8,125.4c4.5,5.4,0,106.1,0,106.1l-62.2,14.8L897.5,576.4z"/>
	<path d="M335.9,804c11.2-5.2,21.6-10.2,32-15c13.3-6.1,26.6-12.2,39.9-18.2c3.3-1.5,4.6-3.6,4.6-7.2c0.1-29.5,0.4-58.9,0.4-88.4
		c0-26.3-0.2-52.7-0.3-79c0-1,0.3-1.9,0.6-3.4c1.1,0.5,1.9,0.7,2.5,1.2c19.2,17.4,38.4,34.8,57.6,52.2c7.7,7,15.4,14.1,23.1,21.2
		c3.6,3.3,6,3.2,8.4-1c9.8-16.8,19.5-33.6,29.2-50.5c9.3-16.3,18.4-32.7,27.9-48.9c7.6-13.1,15.5-26,23.5-38.8
		c2.6-4.2,5.7-8,8.8-12.3c0.6,1,1.1,1.4,1.1,1.9c-0.1,55.1-0.3,110.2-0.5,165.3c0,1.9,0,3.8,0.1,5.8c0.3,4.8,1.4,5.8,5.8,3.8
		c11.7-5.3,23.3-10.9,35.1-16.3c10-4.6,19.9-9.2,30.1-13.3c4.8-1.9,6.2-4.7,6.3-9.4c0-36.1,0.3-72.2,0.3-108.3
		c0.1-63,0.1-125.9,0.2-188.9c0-2,0.2-4,0.4-6.8c1.7,1.3,2.8,1.8,3.6,2.7c10.4,10.2,20.8,20.5,31.3,30.7c4.5,4.4,9.4,8.4,13.6,13
		c1.8,2,3.5,5.1,3.5,7.7c0.3,46.2,0.4,92.4,0.5,138.6c0.1,30.3,0.2,60.7,0.1,91c0,4.3,1.9,4.9,5.2,3.5c18.8-8.3,37.5-16.7,56.3-25.1
		c2.4-1.1,4.8-2.1,7.3-2.9c5.2-1.6,6.8-5.1,6.8-10.3c-0.1-39.8,0.1-79.5,0.1-119.3c0.1-61.2,0.2-122.4,0.3-183.6
		c0-2.2,0.3-4.3,0.6-7.6c2.4,1.7,4,2.6,5.4,3.8c8.8,8.2,17.5,16.5,26.1,24.8c15.1,14.4,30.1,28.9,45.3,43.2
		c3.2,3.1,3.9,5.9,2.4,10.2c-3.2,9.2-5.8,18.6-8.7,27.9c-8.3,26.2-16.8,52.3-25.1,78.5c-9.5,30-18.9,60-28.4,90
		c-3.3,10.4-6.9,20.7-10.2,31.1c-0.5,1.5,0.1,3.2,0.1,4.9c1.5-0.2,3.1,0,4.4-0.6c16.6-7.1,33.2-14.4,49.8-21.6
		c5.6-2.4,11.3-4.7,16.6-7.6c2.2-1.2,4.3-3.6,5.2-5.9c2-4.8,3.2-9.9,4.8-14.9c4.4-13.9,8.6-27.9,13.5-41.6c0.9-2.7,4.2-5.1,6.9-6.4
		c13.7-6.8,27.6-13.3,41.4-19.8c16.5-7.8,33.1-15.4,49.6-23.3c2.8-1.3,3.7-0.4,4.6,2c3.9,10.2,7.9,20.5,11.9,30.7
		c2.4,5.9,5.1,11.8,7.5,17.7c1.4,3.4,3.7,3.1,6.4,1.9c9.2-4.1,18.6-7.8,27.7-12.1c11-5.1,21.9-10.7,32.9-16c3.6-1.7,4.4-3.9,3-7.5
		c-7.7-19.8-15.3-39.7-23.1-59.4c-7.7-19.4-15.6-38.7-23.6-58c-8.7-21-17.8-41.9-26.5-63c-8.4-20.4-16.4-41-24.6-61.4
		c-1.7-4.2-3.3-8.3-4.8-12.5c-0.6-1.5-0.7-3.2,0-5.5c1.9,1.6,4,3.1,5.6,4.9c3.4,4,6.5,8.2,9.7,12.3c12,15.6,24.1,31,35.9,46.7
		c6.7,8.9,12.9,18.1,19.1,27.3c10.6,15.7,20.9,31.6,31.6,47.3c16.8,24.6,33.8,49,50.6,73.5c7.6,11,14.9,22.2,22.8,33.1
		c4.4,6.1,9.8,11.6,14.3,17.7c1.6,2.2,2.6,5.4,2.6,8.1c0.3,34.5,0.2,69,0.4,103.6c0.2,54.7,0.5,109.4,0.8,164.1
		c0,7.1,0.5,14.2,1,21.4c0.2,3.3-0.4,5.7-4,6.7c-10.3,3.1-20.5,6.4-30.9,9.3c-17,4.9-34.1,9.6-51.2,14.3
		c-19.6,5.4-39.2,10.7-58.8,16.1c-13.7,3.8-27.4,7.8-41.1,11.6c-19.9,5.5-39.9,10.9-59.8,16.5c-13.5,3.8-27,7.7-40.5,11.5
		c-11.4,3.2-22.7,6.5-34.1,9.6c-14.2,3.9-28.4,7.8-42.6,11.7c-12.2,3.4-24.4,6.8-36.6,10.2c-14.3,4.1-28.6,8.3-43,12.4
		c-14,3.9-28.1,7.7-42.1,11.5c-11.4,3.1-22.7,6.4-34.1,9.6c-14.3,4-28.7,8.1-43,12.1c-19,5.3-38.1,10.6-57.2,15.9
		c-14.7,4.1-29.4,8.2-44.1,12.4c-11.5,3.3-23,6.6-34.5,10c-3.1,0.9-5.4,0.5-7.7-2.3c-14.2-17.2-28.5-34.2-42.8-51.3
		c-8.6-10.2-17.3-20.4-26-30.6c-16.9-19.9-33.8-39.7-50.7-59.6c-7.6-8.9-15.2-17.7-22.7-26.5C338.4,807.4,337.5,806.1,335.9,804z
		 M1079.4,614.5c0.1,0,0.1,0,0.2,0c0-8.9,0-17.8,0-26.7c0-10.1,0-9.9-9.9-7.4c-5.2,1.3-7.5,4-7.4,9.5c0.2,11.7-0.1,23.4-0.3,35
		c0,1.6-0.8,3.2-1.2,4.8c-1.7-0.7-3.5-1.2-5-2.2c-10.4-7.2-20.9-14.4-31.1-22c-5.5-4.1-9.9-0.9-14.6,1c-4,1.6-3.2,5.4-3.1,8.7
		c0,13.4,0.2,26.8,0.3,40.3c0,7.1-0.1,14.3-0.2,21.4c-0.1,3.5,1.1,5,4.7,3.2c2.3-1.1,4.8-2.3,7.3-2.7c4.3-0.8,5.7-3.2,5.6-7.3
		c-0.2-11.7-0.2-23.4-0.2-35c0-1.5,0.6-2.9,0.9-4.4c1.4,0.4,3,0.5,4.2,1.3c9.1,6.1,18.3,12.1,27,18.8c5.6,4.2,10.7,6.3,17.6,2.9
		c3.4-1.7,5.3-3.2,5.2-7.2C1079.3,635.8,1079.4,625.1,1079.4,614.5z M936.4,685.1c0.4,0.5,0.8,1,1.2,1.5c-1.5,2.4-2.4,5.5-4.6,6.9
		c-6.8,4.4-13.8,8.6-21.1,12c-7.2,3.3-14-1.3-15.1-9.3c-2-14.8,6.4-30,20.1-35.7c5.2-2.1,10.8-5.7,16.7-1.2c0.5,0.4,2.4-0.2,3.1-0.9
		c3.5-3.6,6.9-7.3,10.3-11c2.7-3,1.9-5.6-1.8-5.9c-6.3-0.4-12.9-0.8-19,0.4c-13.3,2.6-23.8,10.4-32.8,20.3
		c-11.4,12.5-17.1,27-13.6,44c1.9,9.4,8.6,15.8,18.2,16c7.3,0.2,14.8-1.4,21.9-3.5c10.8-3.1,19.7-10.1,26.4-18.7
		c6.9-8.8,9.6-19.6,10.3-30.8c0.4-5.4-1.1-6.4-6-4.4c-10.2,4-20.3,8.1-30.5,12.2c-4.8,1.9-6.9,6.7-4.7,11.4c2.2,4.7,5.5,1.8,8.5,0.9
		C928.2,688,932.3,686.5,936.4,685.1z M494.7,858.7c0.3,0,0.6,0,0.8,0c0,11,0,21.9,0,32.9c0,2.5,0.2,5.5,4.1,3.6
		c11.6-5.5,23.2-11,34.7-16.8c10.3-5.2,17.9-13.6,22.6-23.8c4.7-10.4,10.2-20.9,4.5-33.2c-3.9-8.2-9.5-13.5-18.4-14
		c-5.1-0.3-10.5,0.6-15.3,2.3c-9.8,3.4-19.3,7.8-29,11.7c-3.3,1.3-4.1,3.7-4.1,7C494.8,838.5,494.7,848.6,494.7,858.7z M661.6,751.8
		c-1.5,0.1-2.2-0.1-2.8,0.2c-14.9,6.4-29.7,12.9-44.5,19.6c-1.4,0.6-2.8,3.2-2.8,4.8c-0.1,21.4,0,42.9,0.2,64.3
		c0.1,5.3,1.7,6.2,6.5,4.1c12.1-5.4,24.1-10.8,36.1-16.3c8.2-3.8,8.5-4.6,7.9-13.6c-0.3-3.7-1.4-4.5-4.9-2.9
		c-7.8,3.5-15.6,6.7-23.6,9.8c-1.4,0.5-4.2,0.4-4.8-0.5c-2.5-3.5,0-11.2,3.9-13c5.9-2.6,11.8-5.1,17.8-7.5c8.7-3.4,9-3.7,9.2-12.8
		c0.2-5.9-0.6-6.3-6.2-3.8c-6.9,3-13.9,5.6-20.8,8.4c-3.5,1.4-4.7,0.1-4.7-3.5c0.2-7.8,1.8-9.9,9.7-12.8c6.8-2.6,13.6-5.3,20.3-8.2
		c1.6-0.7,3.6-2.4,3.7-3.8C662.3,760.2,661.8,756.1,661.6,751.8z M734.6,764.6c0,0.1,0,0.1,0,0.2c3.1,0,6.3-0.2,9.4,0.1
		c5.4,0.5,6.4,3.1,3.1,7.6c-4.4,6.1-15.4,8.6-22.2,5.4c-1.7-0.8-4.9-1.1-5.9-0.1c-2.7,2.8-4.8,6.3-6.8,9.7c-1.6,2.7-1,4.7,2.3,6
		c21.7,8.5,48.8-8.7,50.3-32c0.4-6.6-2.6-11.8-9-13.6c-3.6-1-7.5-0.6-11.3-0.8c-4.1-0.2-8.3,0-12.3-0.8c-3.1-0.7-3.6-3.3-1.9-6.2
		c3-5,7.8-8.4,13-6.6c9.1,3,13.4-0.6,16.1-8.5c0.2-0.6,0.7-1.2,1.2-1.7c2.4-2.7,1.3-4.1-1.7-5.3c-8.2-3.3-16.2-1.7-23.9,1.5
		c-10.4,4.3-17,12.8-21.4,22.6c-5.2,11.3,1.2,21.2,13.6,22.2C729.7,764.5,732.2,764.5,734.6,764.6z M830,719.5
		C830,719.5,829.9,719.5,830,719.5c0-8.5,0-17.1,0-25.6c0-11.3,0.1-11-10.7-7.7c-4.8,1.5-6.2,4.1-6.1,8.7c0.2,9.2-0.1,18.5-0.1,27.7
		c0,11.5,0,23,0.3,34.5c0,1.6,1,4.2,2.1,4.5c5,1.5,14.5-6,14.6-11.3C830,740.1,830,729.8,830,719.5z"/>
	<path d="M1047,732.4L697.8,885.7l-223.7,37.9V828l22.6-38.8L982,589.9l102.8-54.1c0,0,16.2,51.4,18.9,74c2.7,22.6,0,98.3,0,98.3"/>
	<g>
		<path class="st3" d="M407.1,772.5l-68.4,30.7c-2,0.9-4.2-0.6-4.2-2.7V499.1c0-3.2,1.9-6.2,4.8-7.6l57.6-27.3
			c3.7-1.8,8.1-1.1,11.1,1.7l85.2,79.8c1.4,1.3,3.7,1,4.6-0.7l81.9-144.8c4.8-8.4,12-15.2,20.8-19.2l67.6-31.5
			c2-0.9,4.2,0.5,4.2,2.7c0.2,38.8,1.2,308.4,0,308.4c-1.1,0-51.2,23.1-70,31.9c-3.3,1.5-7.1-0.9-7.2-4.5l-1.6-162.4
			c0-3-4-4.1-5.5-1.5l-83.3,141.3c-1.7,2.9-5.7,3.6-8.3,1.3l-79-68.6c-1.9-1.7-4.9-0.3-4.9,2.2l0.4,162.9
			C413,767.3,410.7,770.9,407.1,772.5z"/>
		<polygon class="st3" points="725.6,640.4 801.4,606.6 802.3,289 725.6,323.8 		"/>
		<path class="st3" d="M988.1,219l-56.6,25.7c-5.3,2.4-9.4,6.9-11.1,12.5L809.4,599.1c-0.7,2.1,1.4,4,3.4,3.2l72-29.5l17.6-64.1
			l101.5-48.7l22.6,55.9l72.2-32.9L991.9,220.5C991.3,219,989.6,218.3,988.1,219z M925.9,437l32-102.8l27.5,73.1L925.9,437z"/>
	</g>
	<g>
		<g>
			<polygon class="st4" points="476,900.2 476,899.3 474.1,900.2 			"/>
			<path class="st3" d="M550.9,824.1c-0.1-4.5-1.2-9-3.3-13c-10.8-20.1-34.7-9.5-34.7-9.5l-36.7,14.5l-0.2,83.2l36.9-18
				c7.6-3.7,14.7-8.5,20.6-14.6C549.3,850.6,551.2,833.3,550.9,824.1z M493.6,870.6l0,0.5l-1.9,0C492.4,870.9,493,870.7,493.6,870.6
				l0.1-43.5c0,0,30.3-20.1,37.7,0.1C531.5,827.1,540.9,856.6,493.6,870.6z"/>
		</g>
		<polygon class="st3" points="604.1,760.4 660.6,737.8 660.6,754.2 623.5,770.2 623.1,784 658.7,771.8 657.1,788.2 623.5,802.7 
			623,818.4 660.4,803.5 660.4,823 605.8,845.6 		"/>
		<polygon class="st3" points="827.8,669.8 844.6,663.1 844.4,742.7 827.6,752.4 		"/>
		<path class="st3" d="M760.4,721.1l13-18.9c0,0-22-10.9-45.6,6.5c0,0-14.6,10.7-13.4,29.2c0,0,1.6,14.2,14.8,14.9l20.7,0.1
			c0,0,10-1.7,5.8,5.6c0,0-11.9,20.6-30.8,6.4l-12.4,17.7c0,0,24.2,15.6,50.3-6.1c0,0,11.3-8.3,13.3-26c0.5-4.4-0.5-8.8-3.2-12.3
			c-3-3.9-8.6-7.4-18.7-6.1c0,0-21.4,7.8-20-4.3c0,0,8.4-18.5,25.8-6.5"/>
		<path class="st3" d="M962.3,639.2l16.9-20.1c0,0-19.5-15-55.8,12.2c0,0-23.7,17.4-25.8,49.5c0,0-1.3,31.9,32.9,28.4
			c0,0,38.6-6.3,52-38c0,0,6.9-12.7,3.6-30.3L939.8,657l0.8,16.6c0,0,13.1-2.2,21.6-8c0,0,6-3.8,2.9,3.9c0,0-15.9,24.3-37.9,18.5
			c-3.9-1-6.9-4.1-7.9-8c-1.6-6.1-2.1-16.4,6.1-27.8C925.4,652.1,949.2,624.3,962.3,639.2z"/>
		<polygon class="st3" points="1061.2,656 1040.5,664.1 1041.4,579.8 1056.2,574.3 1101.2,606.9 1103,553.7 1122.7,546.4 
			1122,629.6 1106.4,635.8 1060.5,603.5 		"/>
	</g>
</g>
</svg>
